<svg id="Capa_1" data-name="Capa 1" xmlns="http://www.w3.org/2000/svg" xmlns:xlink="http://www.w3.org/1999/xlink" viewBox="0 0 33.5 48.63"><defs><style>.cls-1,.cls-2{stroke:#1d1d1b;}.cls-1,.cls-2,.cls-3{stroke-miterlimit:10;stroke-width:0.25px;}.cls-1{fill:url(#Degradado_sin_nombre_3);}.cls-2{fill:#96d5f5;}.cls-3{fill:none;stroke:#000;}</style><linearGradient id="Degradado_sin_nombre_3" x1="31.78" y1="14.06" x2="32.26" y2="54.97" gradientUnits="userSpaceOnUse"><stop offset="0.14" stop-color="#009fe3"/><stop offset="0.51" stop-color="#3263b4"/><stop offset="0.84" stop-color="#573691"/><stop offset="1" stop-color="#662483"/></linearGradient></defs><path class="cls-1" d="M47.54,46.31,33.61,56.73a2.67,2.67,0,0,1-3.22,0L16.46,46.31a2.68,2.68,0,0,1-1.08-2.15V22a2.68,2.68,0,0,1,1.08-2.15L30.39,9.42a2.7,2.7,0,0,1,3.22,0L47.54,19.84A2.68,2.68,0,0,1,48.62,22V44.16A2.68,2.68,0,0,1,47.54,46.31Z" transform="translate(-15.25 -8.76)"/><ellipse class="cls-2" cx="9.01" cy="15.79" rx="4.88" ry="5.81"/><ellipse class="cls-2" cx="23.95" cy="15.79" rx="4.88" ry="5.81"/><path class="cls-3" d="M19.67,35.3c2.06,0,2,8,4.07,8s2.1-8,4.16-8,2,8,4.07,8,2.1-8,4.16-8,2,8,4.08,8,2.1-8,4.16-8" transform="translate(-15.25 -8.76)"/></svg>